<?xml version="1.0" encoding="utf-8"?>
<!-- Generator: Adobe Illustrator 25.4.1, SVG Export Plug-In . SVG Version: 6.00 Build 0)  -->
<svg version="1.1" id="レイヤー_1" xmlns="http://www.w3.org/2000/svg" xmlns:xlink="http://www.w3.org/1999/xlink" x="0px"
	 y="0px" viewBox="0 0 500 500" style="enable-background:new 0 0 500 500;" xml:space="preserve">
<style type="text/css">
	.st0{display:none;}
	.st1{display:inline;fill:#EF1616;}
	.st2{fill:#8BD5DA;}
	.st3{display:inline;fill:#8BD5DA;}
	.st4{display:none;fill:#8BD5DA;}
</style>
<g class="st0">
	<path class="st1" d="M226,57c49.08,0,96.52,18.43,133.59,51.9c36.65,33.09,59.43,77.3,64.14,124.49
		c0.05,0.47,0.11,1.11,21.83,21.62c-1.68,1.67-6,5.98-10.32,10.31c-11.3,11.33-11.31,11.42-11.36,11.91
		c-5.26,48.67-28.16,93.57-64.47,126.44C322.83,436.77,275.45,455,226,455c-26.87,0-52.93-5.26-77.46-15.64
		c-23.7-10.02-44.98-24.37-63.25-42.65c-18.28-18.28-32.62-39.56-42.65-63.25C32.26,308.93,27,282.87,27,256s5.26-52.93,15.64-77.46
		c10.02-23.7,24.37-44.98,42.65-63.25c18.28-18.28,39.56-32.62,63.25-42.65C173.07,62.26,199.13,57,226,57 M226,56
		C115.54,56,26,145.54,26,256s89.54,200,200,200c103.25,0,188-78,198.87-178.65C424.91,276.98,447,255,447,255
		s-22.2-20.95-22.27-21.7C415,136,328.78,56,226,56L226,56z"/>
</g>
<g>
	<path class="st2" d="M226,57c49.02,0,96.52,18.55,133.76,52.24c17.93,16.22,32.59,35.12,43.57,56.15
		c11.27,21.6,18.13,44.47,20.39,68c0.86,8.99,11.62,19.65,14.77,22.59c-3.14,2.79-13.69,12.72-14.62,21.26
		c-5.34,49.04-28.26,94.07-64.54,126.8C322.91,436.9,275.55,455,226,455c-26.87,0-52.93-5.26-77.46-15.64
		c-23.7-10.02-44.98-24.37-63.25-42.65c-18.28-18.28-32.62-39.56-42.65-63.25C32.26,308.93,27,282.87,27,256s5.26-52.93,15.64-77.46
		c10.02-23.7,24.37-44.98,42.65-63.25c18.28-18.28,39.56-32.62,63.25-42.65C173.07,62.26,199.13,57,226,57 M226,56
		C115.54,56,26,145.54,26,256s89.54,200,200,200c103.25,0,187.81-77.03,198.87-178.65C425.91,267.8,440,256,440,256
		s-14.31-12.66-15.27-22.7C415.47,136.91,328.78,56,226,56L226,56z"/>
</g>
<g class="st0">
	<path class="st3" d="M446,235v41h-41v-41H446 M447,234h-43v43h43V234L447,234z"/>
</g>
<rect x="425.42" y="233.6" class="st4" width="5" height="9.76"/>
</svg>
